<svg width="280" height="80" viewBox="0 0 280 80" fill="none" xmlns="http://www.w3.org/2000/svg">
  <defs>
    <linearGradient id="icon_bg_l" x1="0" y1="0" x2="64" y2="64" gradientUnits="userSpaceOnUse">
      <stop offset="0%" stop-color="#0B1929"/>
      <stop offset="100%" stop-color="#0D2137"/>
    </linearGradient>
    <linearGradient id="icon_fg_l" x1="8" y1="16" x2="56" y2="48" gradientUnits="userSpaceOnUse">
      <stop offset="0%" stop-color="#40C4FF"/>
      <stop offset="100%" stop-color="#00B0FF"/>
    </linearGradient>
  </defs>
  <!-- Icon -->
  <rect x="8" y="8" width="64" height="64" rx="14" fill="url(#icon_bg_l)"/>
  <path d="M22 54V33.5C22 29.5 23.8 26.2 27.2 24.4C29.6 23.1 32.5 23 35 23.8L33.5 29.2C32.2 28.8 30.8 28.9 29.8 29.5C28.8 30.1 28.2 31.4 28.2 33.2V35H34V40.4H28.2V54H22Z" fill="url(#icon_fg_l)"/>
  <path d="M36 35L41.5 44L36 54H42.5L45 49.5L47.5 54H54L48.5 44L54 35H47.5L45 39.5L42.5 35H36Z" fill="url(#icon_fg_l)"/>
  <circle cx="58" cy="26" r="4" fill="#40C4FF" opacity="0.9"/>
  <!-- Wordmark (light) -->
  <text x="90" y="52" font-family="'Inter','SF Pro Display','Segoe UI',system-ui,sans-serif" font-size="36" font-weight="700" fill="#F1F5F9" letter-spacing="-1">
    <tspan>fx</tspan>
  </text>
  <text x="128" y="52" font-family="'Inter','SF Pro Display','Segoe UI',system-ui,sans-serif" font-size="14" font-weight="400" fill="#94A3B8" letter-spacing="0.5">
    <tspan>monorepo</tspan>
  </text>
</svg>
