<svg width="64" height="64" viewBox="0 0 64 64" fill="none" xmlns="http://www.w3.org/2000/svg">
  <defs>
    <linearGradient id="bg_grad" x1="0" y1="0" x2="64" y2="64" gradientUnits="userSpaceOnUse">
      <stop offset="0%" stop-color="#0B1929"/>
      <stop offset="100%" stop-color="#0D2137"/>
    </linearGradient>
    <linearGradient id="fx_grad" x1="8" y1="16" x2="56" y2="48" gradientUnits="userSpaceOnUse">
      <stop offset="0%" stop-color="#40C4FF"/>
      <stop offset="100%" stop-color="#00B0FF"/>
    </linearGradient>
  </defs>
  <rect width="64" height="64" rx="14" fill="url(#bg_grad)"/>
  <!-- f -->
  <path d="M14 46V25.5C14 21.5 15.8 18.2 19.2 16.4C21.6 15.1 24.5 15 27 15.8L25.5 21.2C24.2 20.8 22.8 20.9 21.8 21.5C20.8 22.1 20.2 23.4 20.2 25.2V27H26V32.4H20.2V46H14Z" fill="url(#fx_grad)"/>
  <!-- x -->
  <path d="M38.5 27L33 36.2L27.5 27H34.2L33 29L34.5 31.5H35.5L37 29L35.8 27H38.5Z" fill="url(#fx_grad)" opacity="0"/>
  <path d="M28 27L33.5 36L28 46H34.5L37 41.5L39.5 46H46L40.5 36L46 27H39.5L37 31.5L34.5 27H28Z" fill="url(#fx_grad)"/>
  <!-- accent dot -->
  <circle cx="50" cy="18" r="4" fill="#40C4FF" opacity="0.9"/>
</svg>
